<svg width="16" height="16" viewBox="0 0 16 16" fill="none" xmlns="http://www.w3.org/2000/svg">
<path d="M8 15C11.866 15 15 11.866 15 8C15 4.13401 11.866 1 8 1C4.13401 1 1 4.13401 1 8C1 11.866 4.13401 15 8 15Z" stroke="#6F6F6F" stroke-linecap="round" stroke-linejoin="round"/>
<path d="M5.96289 5.9002C6.12746 5.43237 6.4523 5.03788 6.87986 4.7866C7.30742 4.53531 7.81012 4.44346 8.29891 4.5273C8.78771 4.61114 9.23106 4.86527 9.55044 5.24467C9.86983 5.62408 10.0446 6.10427 10.0439 6.6002C10.0439 8.0002 7.94389 8.7002 7.94389 8.7002" stroke="#6F6F6F" stroke-linecap="round" stroke-linejoin="round"/>
<path d="M8 11.5H8.007" stroke="#6F6F6F" stroke-linecap="round" stroke-linejoin="round"/>
</svg>
