<svg width="62" height="67" viewBox="0 0 62 67" fill="none" xmlns="http://www.w3.org/2000/svg">
<path fill-rule="evenodd" clip-rule="evenodd" d="M31.4247 6.79452C33.3009 6.79452 34.8219 5.27352 34.8219 3.39726C34.8219 1.52101 33.3009 0 31.4247 0C29.5484 0 28.0274 1.52101 28.0274 3.39726C28.0274 5.27352 29.5484 6.79452 31.4247 6.79452ZM13.589 17.8356C13.589 21.5881 10.547 24.6301 6.79452 24.6301C3.04201 24.6301 0 21.5881 0 17.8356C0 14.0831 3.04201 11.0411 6.79452 11.0411C10.547 11.0411 13.589 14.0831 13.589 17.8356ZM62 42.0411C62 55.4094 51.1628 66.2466 37.7945 66.2466C24.4262 66.2466 13.589 55.4094 13.589 42.0411C13.589 28.6728 24.4262 17.8356 37.7945 17.8356C51.1628 17.8356 62 28.6728 62 42.0411Z" fill="url(#paint0_linear)"/>
<path fill-rule="evenodd" clip-rule="evenodd" d="M36.6599 29.2991C37.1334 29.0227 37.6712 28.8767 38.2192 28.8767C38.7672 28.8767 39.305 29.0227 39.7785 29.2991C39.7791 29.2994 39.7797 29.2998 39.7803 29.3001L47.7072 33.8874C48.0991 34.1165 48.4351 34.4281 48.6936 34.7991C48.7486 34.852 48.7974 34.9133 48.8379 34.9825C48.8764 35.0481 48.905 35.1168 48.9243 35.1868C49.1445 35.6257 49.2598 36.111 49.2603 36.6037V45.7799C49.2597 46.329 49.1166 46.8689 48.8446 47.3455C48.5725 47.8222 48.1806 48.2194 47.7072 48.4962L47.704 48.4981L39.7803 53.0834C39.7797 53.0838 39.7791 53.0841 39.7786 53.0844C39.3051 53.3609 38.7673 53.5068 38.2192 53.5068C37.6711 53.5068 37.1333 53.3609 36.6598 53.0844C36.6592 53.0841 36.6587 53.0838 36.6581 53.0834L28.7344 48.4981L28.7312 48.4962C28.2578 48.2194 27.8659 47.8222 27.5938 47.3455C27.3218 46.8689 27.1787 46.329 27.1781 45.7799V36.6037C27.1786 36.1113 27.2937 35.6264 27.5136 35.1879C27.5328 35.1175 27.5616 35.0484 27.6002 34.9825C27.6409 34.913 27.6899 34.8515 27.7453 34.7984C28.0037 34.4277 28.3395 34.1163 28.7312 33.8874L28.7344 33.8854L36.6581 29.3001C36.6587 29.2998 36.6593 29.2994 36.6599 29.2991ZM28.8767 36.7146V45.7786C28.8771 46.0337 28.9436 46.2838 29.069 46.5035C29.1942 46.7227 29.3732 46.9036 29.5871 47.029C29.5876 47.0292 29.588 47.0295 29.5885 47.0298L37.3699 51.5328V41.69L28.8767 36.7146ZM39.0685 41.6899V51.5328L46.8499 47.0298C46.8504 47.0295 46.8509 47.0292 46.8514 47.0289C47.0652 46.9035 47.2442 46.7227 47.3693 46.5035C47.4948 46.2837 47.5614 46.0335 47.5617 45.7782V36.7145L39.0685 41.6899ZM46.6859 35.2589L38.9229 30.7665C38.7083 30.641 38.4656 30.5753 38.2192 30.5753C37.9728 30.5753 37.7301 30.641 37.5155 30.7665L37.5122 30.7684L35.0232 32.2087L43.3284 37.2258L46.6859 35.2589ZM41.6606 38.2028L33.5335 33.2933C33.4727 33.2566 33.4182 33.2135 33.3702 33.1653L29.7524 35.2589L38.2191 40.2189L41.6606 38.2028Z" fill="white"/>
<defs>
<linearGradient id="paint0_linear" x1="31" y1="0" x2="31" y2="66.2466" gradientUnits="userSpaceOnUse">
<stop stop-color="#F76201"/>
<stop offset="1" stop-color="#FF4D00"/>
</linearGradient>
</defs>
</svg>
