<svg width="62" height="66" viewBox="0 0 62 66" fill="none" xmlns="http://www.w3.org/2000/svg">
<path fill-rule="evenodd" clip-rule="evenodd" d="M31.3077 6.76923C33.177 6.76923 34.6923 5.25389 34.6923 3.38462C34.6923 1.51534 33.177 0 31.3077 0C29.4384 0 27.9231 1.51534 27.9231 3.38462C27.9231 5.25389 29.4384 6.76923 31.3077 6.76923ZM13.5385 17.7692C13.5385 21.5078 10.5078 24.5385 6.76923 24.5385C3.03069 24.5385 0 21.5078 0 17.7692C0 14.0307 3.03069 11 6.76923 11C10.5078 11 13.5385 14.0307 13.5385 17.7692ZM61.7692 41.8846C61.7692 55.2032 50.9724 66 37.6538 66C24.3353 66 13.5385 55.2032 13.5385 41.8846C13.5385 28.5661 24.3353 17.7692 37.6538 17.7692C50.9724 17.7692 61.7692 28.5661 61.7692 41.8846Z" fill="url(#paint0_linear)"/>
<path d="M44.0783 39.0288H42.8186C42.4446 37.5729 41.6717 36.2515 40.5879 35.215C39.504 34.1784 38.1526 33.4682 36.6872 33.1651C35.2218 32.8619 33.7012 32.9779 32.2981 33.5C30.8951 34.022 29.6658 34.9292 28.7501 36.1183C27.8343 37.3074 27.2688 38.7309 27.1178 40.2269C26.9667 41.723 27.2362 43.2316 27.8956 44.5814C28.555 45.9312 29.5779 47.068 30.848 47.8627C32.1182 48.6574 33.5846 49.078 35.0807 49.0769H44.0783C45.404 49.0769 46.6754 48.5476 47.6128 47.6054C48.5503 46.6632 49.0769 45.3853 49.0769 44.0529C49.0769 42.7204 48.5503 41.4425 47.6128 40.5004C46.6754 39.5582 45.404 39.0288 44.0783 39.0288Z" stroke="white" stroke-width="2" stroke-linecap="round" stroke-linejoin="round"/>
<defs>
<linearGradient id="paint0_linear" x1="30.8846" y1="0" x2="30.8846" y2="66" gradientUnits="userSpaceOnUse">
<stop stop-color="#40A800"/>
<stop offset="1" stop-color="#178A00"/>
</linearGradient>
</defs>
</svg>
