<svg width="62" height="67" viewBox="0 0 62 67" fill="none" xmlns="http://www.w3.org/2000/svg">
<path fill-rule="evenodd" clip-rule="evenodd" d="M31.4247 6.79452C33.3009 6.79452 34.8219 5.27352 34.8219 3.39726C34.8219 1.52101 33.3009 0 31.4247 0C29.5484 0 28.0274 1.52101 28.0274 3.39726C28.0274 5.27352 29.5484 6.79452 31.4247 6.79452ZM13.589 17.8356C13.589 21.5881 10.547 24.6301 6.79452 24.6301C3.04201 24.6301 0 21.5881 0 17.8356C0 14.0831 3.04201 11.0411 6.79452 11.0411C10.547 11.0411 13.589 14.0831 13.589 17.8356ZM62 42.0411C62 55.4094 51.1628 66.2466 37.7945 66.2466C24.4262 66.2466 13.589 55.4094 13.589 42.0411C13.589 28.6728 24.4262 17.8356 37.7945 17.8356C51.1628 17.8356 62 28.6728 62 42.0411Z" fill="url(#paint0_linear)"/>
<defs>
<linearGradient id="paint0_linear" x1="31" y1="0" x2="31" y2="66.2466" gradientUnits="userSpaceOnUse">
<stop stop-color="#F76201"/>
<stop offset="1" stop-color="#FF4D00"/>
</linearGradient>
</defs>
</svg>
